#!OML:ASF F:\VICON\USERDATA\INSTALL\rory3\rory3.ASF
:FULLY-SPECIFIED
:DEGREES
87
root 0.3168392238390755 18.553678791424648 -15.210412924181401 12.404020142735154 0.08242517733385668 -1.0286770023588052
lfemur -31.29111107280484 6.918453575495175 -18.951764705809477
ltibia 40.543235112624565
lfoot -11.400548328220044 4.146211659663156
ltoes 7.244385263207173
rfemur -28.064325192760293 -5.136776216664039 20.527738305528768
rtibia 34.5999243253781
rfoot -17.667626303724663 -4.1507709450969585
rtoes 6.822452570123536
lowerback 6.01931313351863 -0.2823665719889248 -0.9629787351502328
upperback 5.178226838854686 -0.399247747923931 1.6058268137535587
thorax 1.4420704998901348 -0.23877867966774835 1.4081952902149242
lowerneck -14.875926411820295 0.3156365884481836 -1.9898386706679634
upperneck 30.180966145934057 0.813847469944448 -0.7359904289331451
head 12.860678528763595 0.10567683239561107 -0.06969532167247328
lclavicle -1.2003961499736989e-17 -8.159619483402625e-16
lhumerus -18.557819565963694 -9.349940943881368 87.9321141149395
lradius 23.473340156843417
lwrist 17.966608677836902
lhand -25.029888503630804 -3.4772072491537536
lfingers 7.125019999999999
lthumb 1.47668595073605 26.256986559355678
rclavicle -1.0986873181753456e-17 -8.15089644191324e-16
rhumerus -20.686364478864007 0.08446664793170244 -82.53497135531487
rradius 32.43390328956407
rwrist 23.239087906360982
rhand -19.07529097801571 -26.700697963954752
rfingers 7.125019999999999
rthumb 7.396750137042732 -56.58500363987759
88
root 0.3155861662994418 18.446166498549722 -15.313746792775957 13.386169491774062 0.01939453361243193 -0.8592447681632365
lfemur -32.17778783978652 6.874918227754848 -19.207956796844503
ltibia 41.36397299600904
lfoot -11.635270403974705 4.416053743519967
ltoes 7.231619149667914
rfemur -30.78725376205861 -5.186088999099152 20.443874014868857
rtibia 36.45705479833542
rfoot -18.309989903659712 -4.379611687183283
rtoes 6.640445583154195
lowerback 5.7163110138997775 -0.26814320033036365 -1.2545091215884114
upperback 4.769367190665211 -0.38571381783140296 1.5361305338937203
thorax 1.1724680207740996 -0.23020663365594973 1.4307484235842705
lowerneck -15.106105312340125 0.34753646156035173 -1.9666999268169012
upperneck 29.765755432264246 0.8801714884881602 -0.9045042095188989
head 12.787471256397065 0.12152481161533751 -0.13574753763501102
lclavicle -1.1929684553859899e-17 -8.158525967169398e-16
lhumerus -18.515142782838677 -8.710696265584406 87.81397345337761
lradius 23.256555241339907
lwrist 17.22230345429375
lhand -25.148030977599632 -3.5371462123694144
lfingers 7.125019999999999
lthumb 1.4530531130744888 26.314727499206803
rclavicle -1.0965855042664272e-17 -8.150615520141317e-16
rhumerus -20.49402266032282 0.2579495571698045 -82.6928348151847
rradius 32.229705010166484
rwrist 23.52848246356507
rhand -19.206189075046694 -26.790868739334254
rfingers 7.125019999999999
rthumb 7.207144348767706 -56.716288438976186
89
root 0.3111803676730583 18.333463229557605 -15.418740338843655 14.369770788277025 -0.00016998081433317047 -0.7125896341255606
lfemur -33.210725482203316 6.828569591443435 -19.43891878492626
ltibia 42.28924950466006
lfoot -11.891340570514739 4.689889939413967
ltoes 7.210825394369454
rfemur -33.28135568966257 -5.15600098566814 20.363836528413863
rtibia 38.40074079773192
rfoot -18.972481868854707 -4.6890230636899055
rtoes 6.383269196612332
lowerback 5.508046870666242 -0.2593664858427849 -1.451640975322492
upperback 4.399565720072671 -0.3767282360667063 1.4781528814299738
thorax 0.89202989500594 -0.21948725691694643 1.4287051001613964
lowerneck -15.343541400347263 0.3231912433158442 -1.944511533442267
upperneck 29.219341172002217 0.9041514183899498 -1.133229459520816
head 12.656275745628186 0.09785502600301504 -0.21824466990393143
lclavicle -1.173640268830905e-17 -8.155933141076345e-16
lhumerus -18.430410732166006 -7.927591566789439 87.70949645916616
lradius 22.95716530318766
lwrist 16.371824729177554
lhand -25.271645995341412 -3.5882249628598526
lfingers 7.125019999999999
lthumb 1.4752678250605558 26.407278533228684
rclavicle -1.0991610656251887e-17 -8.150949302874096e-16
rhumerus -20.35605854005521 0.2852052950554853 -82.79518048124179
rradius 31.825917782822792
rwrist 23.906704971889923
rhand -19.328182989355188 -26.861307645135696
rfingers 7.125019999999999
rthumb 7.013778581042922 -56.82622358749672
90
root 0.30101057029252953 18.217810434823573 -15.51260079140094 15.41438442598071 0.009366299055464822 -0.6453802071576964
lfemur -34.44009200194877 6.767706682985881 -19.587118439425776
ltibia 43.533051731189495
lfoot -12.169995422123815 4.9982356254298494
ltoes 7.091284808148615
rfemur -35.73069014427764 -5.056620930814826 20.39047392642776
rtibia 40.35950052680331
rfoot -19.601367209632286 -5.0641408268248975
rtoes 6.140212117111045
lowerback 5.34586354281964 -0.2474123127686523 -1.5150935852196712
upperback 4.063498481818453 -0.361032423670038 1.4573653205543233
thorax 0.6252064595975124 -0.2044276380097533 1.423990753607495
lowerneck -15.5901957850217 0.2481706460024718 -1.9135968373286343
upperneck 28.590074728209462 0.8696168648573486 -1.3735058473527388
head 12.502375081196474 0.030481657037581267 -0.29561585515691935
lclavicle -1.1856347244694414e-17 -8.157581510631361e-16
lhumerus -18.241802805210664 -6.811829577127998 87.6385955709589
lradius 22.478968420373068
lwrist 15.153410469421623
lhand -25.441327986538667 -3.6325890883056737
lfingers 7.125019999999999
lthumb 1.5207032292941023 26.520096789544375
rclavicle -1.092136912154399e-17 -8.150015079620735e-16
rhumerus -20.24692809625727 0.12242885835424433 -82.8233685980163
rradius 31.288014104039938
rwrist 24.374771115431113
rhand -19.451764630646217 -26.918986880178736
rfingers 7.125019999999999
rthumb 6.8216719246410715 -56.92016871215225
